<?xml version="1.0" encoding="utf-8"?>
<!-- Svg Vector Icons : http://www.onlinewebfonts.com/icon -->
<!DOCTYPE svg PUBLIC "-//W3C//DTD SVG 1.1//EN" "http://www.w3.org/Graphics/SVG/1.1/DTD/svg11.dtd">
<svg version="1.1" xmlns="http://www.w3.org/2000/svg" xmlns:xlink="http://www.w3.org/1999/xlink" x="0px" y="0px" viewBox="0 0 1000 1000" enable-background="new 0 0 1000 1000" xml:space="preserve">
<metadata> Svg Vector Icons : http://www.onlinewebfonts.com/icon </metadata>
<g><g transform="translate(0.000000,203.000000) scale(0.100000,-0.100000)"><path d="M4790.1,1842.5c-1024.2-349.5-1669.7-1300.8-1669.7-2456c0-1514.4,1111.5-2737.6,2480.3-2742.4c1092.1,0,2004.6,800.9,2252.2,1975.5c359.2,1689.1-849.4,3324.9-2446.4,3310.3C5193,1929.9,4935.7,1891.1,4790.1,1842.5z"/><path d="M2484.5-3729.7c-490.2-160.2-1014.4-703.8-1349.4-1393c-339.8-703.8-635.9-1868.7-635.9-2519.2V-7870h4489.8c2465.7,0,4494.6,19.4,4504.4,38.8c34,53.4-58.3,873.7-140.7,1320.2C9144-5423.6,8561.5-4321.8,7983.9-3923.8c-271.8,189.3-383.5,169.9-766.9-135.9c-398-325.2-834.9-548.5-1140.6-587.3c-325.2-43.7-713.5,72.8-1582.4,485.4c-422.3,194.2-873.7,393.1-999.9,436.8C3207.7-3627.7,2780.6-3627.7,2484.5-3729.7z"/></g></g>
</svg>